<svg width="100" height="100" viewBox="0 0 100 100" fill="none" xmlns="http://www.w3.org/2000/svg">
<path d="M70.8 7C75 7 78.4 10.4 78.4 14.6C78.4 18.8 75 22.2 70.8 22.2C66.6 22.2 63.2 18.8 63.2 14.6C63.2 10.4 66.6 7 70.8 7ZM80.6 54.6C79.5 54.6 78.4 54.7 77.4 54.9L74.8 45.9H84.7C84.6 46.2 84.4 46.6 84.1 46.9C83.4 47.7 82.2 48.1 80.5 48.1C79.3 48.1 78.3 49.1 78.3 50.3C78.3 51.5 79.3 52.5 80.5 52.5C83.5 52.5 85.8 51.6 87.3 49.8C89.5 47.2 89.1 43.9 89.1 43.5C88.9 42.4 88 41.7 87 41.7H77.2C77.1 40.7 76.7 39.7 76 39L61.4 24.1C61 23.7 60.2 23.1 59.3 22.7C57 21.7 54.2 22.2 52.2 24.1L33.9 42.4C32.5 43.8 31.9 45.6 32 47.4C32 48 32 48.6 32.3 49.1L34.2 54.2L30.7 58.1C27.5 55.9 23.7 54.5 19.5 54.5C8.7 54.6 0 63.3 0 74C0 84.7 8.7 93.4 19.4 93.4C30.1 93.4 38.8 84.7 38.8 74C38.8 69 36.9 64.5 33.8 61L35.8 58.8L43.4 79.5C44.2 81.7 46.7 82.9 48.9 82.1C51.1 81.3 52.3 78.8 51.5 76.6L42.6 52.5H51.4L49.4 62.2C48.9 64.5 50.4 66.8 52.8 67.3C55.1 67.8 57.4 66.3 57.9 63.9L61 48.9C61.1 48.5 61.1 48 61.1 47.8C61 45.5 59.1 43.7 56.8 43.7H50.8L59.7 34.8L69.8 44.9L69.9 45L73 55.9C65.9 58.8 60.9 65.8 60.9 73.9C60.9 84.6 69.6 93.3 80.3 93.3C91 93.3 100 84.7 100 74C100 63.3 91.3 54.6 80.6 54.6ZM34.6 74C34.6 82.3 27.8 89.1 19.5 89.1C11.2 89.1 4.3 82.3 4.3 74C4.3 65.7 11.1 58.9 19.4 58.9C22.5 58.9 25.3 59.8 27.7 61.4L17.8 72.6C17 73.5 17.1 74.8 18 75.6C18.8 76.4 20.2 76.3 21 75.4L31 64.3C33.2 66.9 34.6 70.3 34.6 74ZM80.6 89.1C72.3 89.1 65.5 82.3 65.5 74C65.5 67.9 69.2 62.6 74.4 60.2L78.5 74.6C78.8 75.5 79.6 76.2 80.6 76.2C80.8 76.2 81 76.2 81.2 76.1C82.3 75.8 83 74.6 82.7 73.4L78.6 59C79.3 58.9 79.9 58.8 80.6 58.8C88.9 58.8 95.7 65.6 95.7 73.9C95.7 82.2 88.9 89.1 80.6 89.1Z" fill="black"/>
</svg>
